<svg width="734" height="198" viewBox="0 0 734 198" fill="none" xmlns="http://www.w3.org/2000/svg">
  <path
    d="M65.5377 165.026L1.07057 100.559C0.821659 101.803 0.473188 107.13 1.07057 118.48C1.66795 129.83 7.62514 141.96 10.5291 146.607C12.5203 149.51 19.0915 157.26 29.4461 165.026C39.8006 172.792 57.8215 175.397 65.5377 175.729V165.026Z"
    fill="#2CFC81" />
  <path
    d="M74.2497 165.026L138.717 100.559C138.966 101.803 139.314 107.13 138.717 118.48C138.119 129.83 132.162 141.96 129.258 146.607C127.267 149.51 120.696 157.26 110.341 165.026C99.9867 172.792 81.9658 175.397 74.2497 175.729V165.026Z"
    fill="#2CFC81" />
  <path
    d="M2.31519 90.6019L65.5378 153.825V94.5845L19.2409 48.2876C8.08985 64.0186 3.31082 83.0517 2.31519 90.6019Z"
    fill="#2CFC81" />
  <path
    d="M137.472 90.6019L74.2496 153.825V94.5845L120.546 48.2876C131.698 64.0186 136.477 83.0517 137.472 90.6019Z"
    fill="#2CFC81" />
  <path
    d="M25.2147 41.0699L65.5378 84.3799V0.249023C45.6252 11.0018 30.6077 31.8603 25.2147 41.0699Z"
    fill="#2CFC81" />
  <path d="M114.573 40.8209L74.2496 84.1308V0C94.1622 10.7528 109.18 31.6113 114.573 40.8209Z"
    fill="#2CFC81" />
  <path
    d="M177.214 176V31.8H205.024V154.37H268.266V176H177.214ZM277.663 176V72.176H305.473V176H277.663ZM291.671 57.962C286.727 57.962 282.607 56.52 279.311 53.636C276.152 50.6147 274.573 46.838 274.573 42.306C274.573 37.774 276.152 34.066 279.311 31.182C282.607 28.1607 286.727 26.65 291.671 26.65C296.752 26.65 300.872 28.1607 304.031 31.182C307.327 34.066 308.975 37.774 308.975 42.306C308.975 46.838 307.327 50.6147 304.031 53.636C300.872 56.52 296.752 57.962 291.671 57.962ZM365.916 176C358.638 176 352.252 174.901 346.758 172.704C341.402 170.369 337.214 166.593 334.192 161.374C331.171 156.018 329.66 148.739 329.66 139.538V95.454H311.944V72.176H329.66L332.75 43.954H357.47V72.176H384.868V95.454H357.47V139.95C357.47 144.619 358.5 147.847 360.56 149.632C362.62 151.417 366.122 152.31 371.066 152.31H384.662V176H365.916ZM393.854 176V27.68H421.664V87.626C425.097 82.1327 429.629 77.8067 435.26 74.648C441.028 71.352 447.688 69.704 455.242 69.704C463.894 69.704 471.172 71.558 477.078 75.266C482.983 78.8367 487.446 84.0553 490.468 90.922C493.489 97.7887 495 106.303 495 116.466V176H467.396V118.938C467.396 110.698 465.679 104.381 462.246 99.986C458.812 95.454 453.388 93.188 445.972 93.188C441.44 93.188 437.32 94.2867 433.612 96.484C429.904 98.6813 426.951 101.909 424.754 106.166C422.694 110.286 421.664 115.23 421.664 120.998V176H393.854ZM507.393 176V72.176H535.203V176H507.393ZM521.401 57.962C516.457 57.962 512.337 56.52 509.041 53.636C505.883 50.6147 504.303 46.838 504.303 42.306C504.303 37.774 505.883 34.066 509.041 31.182C512.337 28.1607 516.457 26.65 521.401 26.65C526.483 26.65 530.603 28.1607 533.761 31.182C537.057 34.066 538.705 37.774 538.705 42.306C538.705 46.838 537.057 50.6147 533.761 53.636C530.603 56.52 526.483 57.962 521.401 57.962ZM583.905 178.472C575.253 178.472 568.111 177.099 562.481 174.352C556.85 171.468 552.661 167.691 549.915 163.022C547.305 158.215 546.001 152.928 546.001 147.16C546.001 140.843 547.58 135.281 550.739 130.474C554.035 125.667 558.91 121.891 565.365 119.144C571.957 116.397 580.197 115.024 590.085 115.024H615.835C615.835 109.943 615.148 105.754 613.775 102.458C612.401 99.0247 610.273 96.484 607.389 94.836C604.505 93.188 600.659 92.364 595.853 92.364C590.634 92.364 586.171 93.5313 582.463 95.866C578.892 98.0633 576.695 101.497 575.871 106.166H548.885C549.571 98.75 551.975 92.364 556.095 87.008C560.352 81.5147 565.914 77.2573 572.781 74.236C579.785 71.2147 587.544 69.704 596.059 69.704C605.809 69.704 614.255 71.352 621.397 74.648C628.538 77.944 634.031 82.682 637.877 88.862C641.722 95.042 643.645 102.664 643.645 111.728V176H620.161L617.071 160.138C615.56 162.885 613.775 165.357 611.715 167.554C609.655 169.751 607.251 171.674 604.505 173.322C601.758 174.97 598.668 176.206 595.235 177.03C591.801 177.991 588.025 178.472 583.905 178.472ZM590.497 157.048C594.067 157.048 597.226 156.43 599.973 155.194C602.857 153.821 605.329 152.035 607.389 149.838C609.449 147.503 611.028 144.894 612.127 142.01C613.363 138.989 614.187 135.761 614.599 132.328V132.122H593.381C589.123 132.122 585.621 132.671 582.875 133.77C580.265 134.731 578.343 136.173 577.107 138.096C575.871 140.019 575.253 142.216 575.253 144.688C575.253 147.435 575.871 149.701 577.107 151.486C578.343 153.271 580.128 154.645 582.463 155.606C584.797 156.567 587.475 157.048 590.497 157.048ZM654.272 176.5C651.738 176.5 649.705 175.767 648.172 174.3C646.638 172.767 645.872 170.9 645.872 168.7C645.872 166.5 646.638 164.667 648.172 163.2C649.705 161.667 651.738 160.9 654.272 160.9C656.672 160.9 658.638 161.667 660.172 163.2C661.705 164.667 662.472 166.5 662.472 168.7C662.472 170.9 661.705 172.767 660.172 174.3C658.638 175.767 656.672 176.5 654.272 176.5ZM656.867 198V186.5H660.967C663.1 186.5 664.6 186.067 665.467 185.2C666.4 184.333 666.867 182.933 666.867 181V125.6H680.367V180.9C680.367 185.033 679.634 188.333 678.167 190.8C676.767 193.333 674.767 195.167 672.167 196.3C669.567 197.433 666.5 198 662.967 198H656.867ZM673.667 118.7C671.2 118.7 669.2 118 667.667 116.6C666.134 115.133 665.367 113.3 665.367 111.1C665.367 108.9 666.134 107.1 667.667 105.7C669.2 104.233 671.2 103.5 673.667 103.5C676.134 103.5 678.134 104.233 679.667 105.7C681.2 107.1 681.967 108.9 681.967 111.1C681.967 113.3 681.2 115.133 679.667 116.6C678.134 118 676.134 118.7 673.667 118.7ZM707.408 177.2C702.808 177.2 698.808 176.467 695.408 175C692.008 173.533 689.342 171.5 687.408 168.9C685.475 166.3 684.375 163.367 684.108 160.1H697.508C697.842 161.367 698.408 162.533 699.208 163.6C700.008 164.6 701.075 165.4 702.408 166C703.742 166.6 705.342 166.9 707.208 166.9C709.008 166.9 710.475 166.667 711.608 166.2C712.742 165.667 713.575 164.967 714.108 164.1C714.708 163.233 715.008 162.333 715.008 161.4C715.008 160 714.608 158.933 713.808 158.2C713.008 157.4 711.842 156.767 710.308 156.3C708.775 155.833 706.908 155.367 704.708 154.9C702.308 154.433 699.942 153.867 697.608 153.2C695.342 152.467 693.308 151.567 691.508 150.5C689.708 149.433 688.275 148.067 687.208 146.4C686.142 144.733 685.608 142.667 685.608 140.2C685.608 137.2 686.408 134.533 688.008 132.2C689.608 129.8 691.942 127.9 695.008 126.5C698.075 125.1 701.775 124.4 706.108 124.4C712.175 124.4 716.975 125.767 720.508 128.5C724.042 131.233 726.142 135 726.808 139.8H714.108C713.708 138.267 712.808 137.067 711.408 136.2C710.075 135.267 708.275 134.8 706.008 134.8C703.608 134.8 701.775 135.233 700.508 136.1C699.242 136.967 698.608 138.1 698.608 139.5C698.608 140.433 699.008 141.267 699.808 142C700.675 142.733 701.875 143.367 703.408 143.9C704.942 144.367 706.808 144.833 709.008 145.3C712.875 146.1 716.275 147.033 719.208 148.1C722.142 149.1 724.442 150.567 726.108 152.5C727.775 154.367 728.608 157.1 728.608 160.7C728.608 163.9 727.742 166.767 726.008 169.3C724.275 171.767 721.808 173.7 718.608 175.1C715.475 176.5 711.742 177.2 707.408 177.2Z"
    fill="white" />
</svg>