<svg width="358" height="455" viewBox="0 0 358 455" fill="none" xmlns="http://www.w3.org/2000/svg">
  <g clip-path="url(#clip0_17_5)">
    <path
      d="M167.725 427.164L0.85379 260.293C0.2095 263.515 -0.692506 277.302 0.85379 306.682C2.40009 336.062 17.8201 367.46 25.3368 379.487C30.4911 387.004 47.5004 407.062 74.3029 427.164C101.105 447.266 147.752 454.01 167.725 454.869V427.164Z"
      fill="#2CFC81" />
    <path
      d="M190.275 427.164L357.146 260.293C357.791 263.515 358.693 277.302 357.146 306.682C355.6 336.062 340.18 367.46 332.663 379.487C327.509 387.004 310.5 407.062 283.697 427.164C256.895 447.266 210.248 454.01 190.275 454.869V427.164Z"
      fill="#2CFC81" />
    <path
      d="M4.0752 234.522L167.725 398.171V244.83L47.8869 124.992C19.0227 165.711 6.65236 214.978 4.0752 234.522Z"
      fill="#2CFC81" />
    <path
      d="M353.925 234.522L190.275 398.171V244.83L310.113 124.992C338.977 165.711 351.348 214.978 353.925 234.522Z"
      fill="#2CFC81" />
    <path
      d="M63.3499 106.308L167.725 218.414V0.644287C116.182 28.4776 77.3095 82.4691 63.3499 106.308Z"
      fill="#2CFC81" />
    <path d="M294.65 105.664L190.275 217.77V0C241.818 27.8333 280.691 81.8248 294.65 105.664Z"
      fill="#2CFC81" />
  </g>
  <defs>
    <clipPath id="clip0_17_5">
      <rect width="358" height="455" fill="white" />
    </clipPath>
  </defs>
</svg>