<svg width="208" height="56" viewBox="0 0 208 56" fill="none" xmlns="http://www.w3.org/2000/svg">
  <g clip-path="url(#clip0_43_79)">
    <path
      d="M18.5359 46.674L0.302789 28.4409C0.23239 28.7928 0.133833 30.2994 0.302789 33.5095C0.471745 36.7196 2.15661 40.1503 2.97793 41.4646C3.5411 42.2856 5.39962 44.4776 8.32819 46.674C11.2567 48.8705 16.3536 49.6072 18.5359 49.7011V46.674Z"
      fill="white" />
    <path
      d="M20.9999 46.674L39.2331 28.4409C39.3035 28.7928 39.4019 30.2994 39.2331 33.5095C39.064 36.7196 37.3791 40.1503 36.5578 41.4646C35.9947 42.2856 34.1362 44.4776 31.2076 46.674C28.2791 48.8705 23.1822 49.6072 20.9999 49.7011V46.674Z"
      fill="white" />
    <path
      d="M0.6548 25.6249L18.5359 43.5062V26.7513L5.44187 13.6572C2.28804 18.1064 0.936393 23.4895 0.6548 25.6249Z"
      fill="white" />
    <path
      d="M38.881 25.6249L20.9999 43.5062V26.7513L34.0938 13.6572C37.2479 18.1064 38.5996 23.4895 38.881 25.6249Z"
      fill="white" />
    <path
      d="M7.13143 11.6156L18.5359 23.8649V0.0703125C12.9041 3.1115 8.65672 9.01088 7.13143 11.6156Z"
      fill="white" />
    <path d="M32.4045 11.5453L20.9999 23.7946V0C26.6317 3.0412 30.8792 8.94057 32.4045 11.5453Z"
      fill="white" />
    <path
      d="M50.1211 49.778V8.99416H57.9866V43.6604H75.8732V49.778H50.1211ZM78.5309 49.778V20.4136H86.3964V49.778H78.5309ZM82.4928 16.3935C81.0945 16.3935 79.9293 15.9857 78.997 15.17C78.1036 14.3155 77.657 13.2473 77.657 11.9656C77.657 10.6838 78.1036 9.63505 78.997 8.81938C79.9293 7.96487 81.0945 7.5376 82.4928 7.5376C83.9299 7.5376 85.0951 7.96487 85.9886 8.81938C86.9208 9.63505 87.3869 10.6838 87.3869 11.9656C87.3869 13.2473 86.9208 14.3155 85.9886 15.17C85.0951 15.9857 83.9299 16.3935 82.4928 16.3935ZM103.491 49.778C101.433 49.778 99.6268 49.4672 98.073 48.8458C96.5581 48.1854 95.3737 47.1174 94.5189 45.6414C93.6645 44.1265 93.2372 42.0678 93.2372 39.4655V26.9973H88.2266V20.4136H93.2372L94.1111 12.4317H101.103V20.4136H108.852V26.9973H101.103V39.582C101.103 40.9026 101.394 41.8155 101.977 42.3204C102.559 42.8252 103.55 43.0778 104.948 43.0778H108.793V49.778H103.491ZM111.393 49.778V7.82891H119.259V24.7833C120.229 23.2297 121.511 22.0062 123.104 21.1128C124.735 20.1806 126.619 19.7145 128.755 19.7145C131.202 19.7145 133.261 20.2388 134.931 21.2876C136.601 22.2975 137.864 23.7734 138.718 25.7155C139.573 27.6576 140 30.0657 140 32.9401V49.778H132.193V33.6393C132.193 31.3087 131.707 29.5221 130.736 28.2791C129.765 26.9973 128.231 26.3564 126.133 26.3564C124.852 26.3564 123.686 26.6672 122.638 27.2886C121.589 27.9101 120.754 28.823 120.132 30.027C119.55 31.1922 119.259 32.5905 119.259 34.2219V49.778H111.393ZM143.505 49.778V20.4136H151.371V49.778H143.505ZM147.467 16.3935C146.069 16.3935 144.903 15.9857 143.971 15.17C143.078 14.3155 142.631 13.2473 142.631 11.9656C142.631 10.6838 143.078 9.63505 143.971 8.81938C144.903 7.96487 146.069 7.5376 147.467 7.5376C148.904 7.5376 150.07 7.96487 150.963 8.81938C151.895 9.63505 152.361 10.6838 152.361 11.9656C152.361 13.2473 151.895 14.3155 150.963 15.17C150.07 15.9857 148.904 16.3935 147.467 16.3935ZM165.145 50.4772C162.698 50.4772 160.678 50.0888 159.086 49.3119C157.493 48.4962 156.308 47.428 155.532 46.1075C154.793 44.7479 154.425 43.2526 154.425 41.6212C154.425 39.8346 154.871 38.2615 155.765 36.902C156.697 35.5424 158.076 34.4744 159.901 33.6975C161.766 32.9206 164.096 32.5323 166.893 32.5323H174.176C174.176 31.0952 173.981 29.9104 173.593 28.9782C173.204 28.0072 172.602 27.2886 171.787 26.8225C170.971 26.3564 169.883 26.1234 168.524 26.1234C167.048 26.1234 165.786 26.4535 164.737 27.1138C163.727 27.7353 163.106 28.7064 162.873 30.027H155.24C155.434 27.9295 156.114 26.1234 157.279 24.6085C158.483 23.0549 160.056 21.8508 161.999 20.9963C163.98 20.1418 166.174 19.7145 168.582 19.7145C171.34 19.7145 173.729 20.1806 175.749 21.1128C177.768 22.045 179.322 23.385 180.41 25.1329C181.497 26.8808 182.041 29.0365 182.041 31.6001V49.778H175.399L174.525 45.2918C174.098 46.0687 173.593 46.7679 173.01 47.3892C172.428 48.0106 171.748 48.5545 170.971 49.0206C170.194 49.4867 169.32 49.8363 168.349 50.0693C167.378 50.3411 166.31 50.4772 165.145 50.4772ZM167.009 44.4178C168.019 44.4178 168.912 44.2431 169.689 43.8935C170.505 43.5052 171.204 43 171.787 42.3786C172.369 41.7182 172.816 40.9803 173.127 40.1647C173.476 39.3102 173.709 38.3973 173.826 37.4263V37.3681H167.825C166.621 37.3681 165.63 37.5233 164.854 37.8342C164.115 38.106 163.572 38.5138 163.222 39.0577C162.873 39.6016 162.698 40.2229 162.698 40.9221C162.698 41.699 162.873 42.3399 163.222 42.8447C163.572 43.3496 164.077 43.7382 164.737 44.01C165.397 44.2818 166.155 44.4178 167.009 44.4178ZM185.047 49.9194C184.33 49.9194 183.755 49.7121 183.321 49.2972C182.888 48.8636 182.671 48.3356 182.671 47.7134C182.671 47.0911 182.888 46.5727 183.321 46.1578C183.755 45.7242 184.33 45.5073 185.047 45.5073C185.725 45.5073 186.281 45.7242 186.715 46.1578C187.149 46.5727 187.366 47.0911 187.366 47.7134C187.366 48.3356 187.149 48.8636 186.715 49.2972C186.281 49.7121 185.725 49.9194 185.047 49.9194ZM185.781 56.0002V52.7477H186.94C187.543 52.7477 187.968 52.6252 188.213 52.38C188.477 52.1348 188.609 51.7389 188.609 51.1921V35.5235H192.427V51.1639C192.427 52.3328 192.22 53.2661 191.805 53.9639C191.409 54.6803 190.843 55.199 190.108 55.5194C189.372 55.8399 188.505 56.0002 187.506 56.0002H185.781ZM190.532 33.5719C189.834 33.5719 189.269 33.374 188.835 32.978C188.402 32.5631 188.185 32.0447 188.185 31.4224C188.185 30.8002 188.402 30.2911 188.835 29.8952C189.269 29.4803 189.834 29.2729 190.532 29.2729C191.23 29.2729 191.795 29.4803 192.229 29.8952C192.663 30.2911 192.88 30.8002 192.88 31.4224C192.88 32.0447 192.663 32.5631 192.229 32.978C191.795 33.374 191.23 33.5719 190.532 33.5719ZM200.075 50.1174C198.774 50.1174 197.643 49.9101 196.681 49.4952C195.719 49.0803 194.965 48.5053 194.418 47.7699C193.872 47.0346 193.561 46.205 193.485 45.281H197.275C197.369 45.6394 197.53 45.9692 197.756 46.2709C197.982 46.5538 198.284 46.78 198.661 46.9497C199.038 47.1194 199.491 47.2043 200.018 47.2043C200.528 47.2043 200.942 47.1384 201.263 47.0063C201.584 46.8555 201.819 46.6576 201.97 46.4123C202.14 46.1671 202.224 45.9126 202.224 45.6487C202.224 45.2527 202.111 44.951 201.885 44.7437C201.659 44.5174 201.329 44.3384 200.895 44.2063C200.462 44.0742 199.934 43.9424 199.311 43.8103C198.633 43.6782 197.963 43.5182 197.303 43.3295C196.662 43.1222 196.087 42.8677 195.578 42.5659C195.069 42.2641 194.664 41.8778 194.362 41.4063C194.06 40.9348 193.909 40.3505 193.909 39.6527C193.909 38.8043 194.136 38.05 194.588 37.3901C195.041 36.7113 195.701 36.174 196.568 35.778C197.435 35.382 198.482 35.1841 199.707 35.1841C201.423 35.1841 202.781 35.5707 203.78 36.3437C204.78 37.1166 205.373 38.182 205.562 39.5396H201.97C201.857 39.106 201.602 38.7666 201.206 38.5214C200.829 38.2576 200.32 38.1255 199.679 38.1255C199 38.1255 198.482 38.2479 198.123 38.4932C197.765 38.7384 197.586 39.0588 197.586 39.4548C197.586 39.7186 197.699 39.9545 197.925 40.1618C198.171 40.3692 198.51 40.5485 198.944 40.6992C199.378 40.8313 199.905 40.9631 200.528 41.0952C201.621 41.3214 202.583 41.5853 203.412 41.8871C204.242 42.1699 204.893 42.5848 205.364 43.1315C205.835 43.6596 206.071 44.4325 206.071 45.4507C206.071 46.3558 205.826 47.1666 205.336 47.8831C204.845 48.5808 204.148 49.1275 203.243 49.5235C202.357 49.9194 201.301 50.1174 200.075 50.1174Z"
      fill="white" />
  </g>
  <defs>
    <clipPath id="clip0_43_79">
      <rect width="207.596" height="56" fill="white" />
    </clipPath>
  </defs>
</svg>