<svg width="1412" height="1778" viewBox="0 0 1412 1778" fill="none"
  xmlns="http://www.w3.org/2000/svg">
  <g filter="url(#filter0_d_35_164)">
    <path
      d="M690.946 1155.35L468.14 932.542C467.28 936.844 466.075 955.253 468.14 994.48C470.205 1033.71 490.793 1075.63 500.83 1091.69C507.712 1101.73 530.422 1128.51 566.209 1155.35C601.995 1182.19 664.278 1191.19 690.946 1192.34V1155.35Z"
      stroke="#2CFC81" stroke-width="5" />
    <path
      d="M943.86 932.542C944.72 936.844 945.925 955.253 943.86 994.48C941.795 1033.71 921.207 1075.63 911.17 1091.69C904.288 1101.73 881.578 1128.51 845.791 1155.35C810.005 1182.19 747.722 1191.19 721.054 1192.34V1155.35"
      stroke="#2CFC81" stroke-width="5" />
    <path
      d="M690.946 1116.64V911.896L530.939 751.889C492.399 806.257 475.882 872.038 472.441 898.132"
      stroke="#2CFC81" stroke-width="5" />
    <path
      d="M881.062 752C919.601 806.368 936.118 872.149 939.559 898.243L830.307 1007.5L721.055 1116.75V912.007"
      stroke="#2CFC81" stroke-width="5" />
    <path d="M690.945 876.626L551.584 726.942C570.223 695.112 622.125 623.023 690.945 585.86"
      stroke="#2CFC81" stroke-width="5" />
    <path
      d="M721.055 875.766L790.735 800.924L860.416 726.082C841.777 694.252 789.875 622.163 721.055 585"
      stroke="#2CFC81" stroke-width="5" />
  </g>
  <g filter="url(#filter1_d_35_164)">
    <path
      d="M663.293 1645.19L31.2339 1013.13C28.7935 1025.33 25.377 1077.55 31.2339 1188.84C37.0908 1300.12 95.4974 1419.05 123.968 1464.6C143.492 1493.07 207.918 1569.05 309.438 1645.19C410.958 1721.33 587.641 1746.87 663.293 1750.12V1645.19Z"
      stroke="#2CFC81" stroke-width="5" />
    <path
      d="M1380.77 1013.13C1383.21 1025.33 1386.62 1077.55 1380.77 1188.84C1374.91 1300.12 1316.5 1419.05 1288.03 1464.6C1268.51 1493.07 1204.08 1569.05 1102.56 1645.19C1001.04 1721.33 824.359 1746.87 748.707 1750.12V1645.19"
      stroke="#2CFC81" stroke-width="5" />
    <path
      d="M663.294 1535.37V954.56L209.383 500.648C100.053 654.881 53.1981 841.489 43.4365 915.514"
      stroke="#2CFC81" stroke-width="5" />
    <path
      d="M1202.62 500.963C1311.95 655.195 1358.8 841.803 1368.56 915.828L1058.64 1225.76L748.707 1535.69V954.874"
      stroke="#2CFC81" stroke-width="5" />
    <path d="M663.293 854.504L267.951 429.877C320.826 339.583 468.063 135.079 663.293 29.6545"
      stroke="#2CFC81" stroke-width="5" />
    <path
      d="M748.707 852.063L946.378 639.75L1144.05 427.437C1091.17 337.143 943.938 132.638 748.707 27.2139"
      stroke="#2CFC81" stroke-width="5" />
  </g>
  <g opacity="0.1" filter="url(#filter2_d_35_164)">
    <path
      d="M668.962 1544.77L120.805 996.608C118.688 1007.19 115.725 1052.48 120.805 1148.99C125.884 1245.5 176.538 1348.64 201.229 1388.15C218.161 1412.84 274.035 1478.73 362.079 1544.77C450.123 1610.8 603.353 1632.95 668.962 1635.77V1544.77Z"
      stroke="#2CFC81" stroke-width="5" />
    <path
      d="M1291.2 996.608C1293.31 1007.19 1296.27 1052.48 1291.2 1148.99C1286.12 1245.5 1235.46 1348.64 1210.77 1388.15C1193.84 1412.84 1137.97 1478.73 1049.92 1544.77C961.877 1610.8 808.647 1632.95 743.038 1635.77V1544.77"
      stroke="#2CFC81" stroke-width="5" />
    <path
      d="M668.963 1449.53V945.813L275.305 552.156C180.489 685.915 139.853 847.752 131.387 911.95"
      stroke="#2CFC81" stroke-width="5" />
    <path
      d="M1136.7 552.428C1231.51 686.187 1272.15 848.024 1280.61 912.223L1011.83 1181.01L743.038 1449.8V946.086"
      stroke="#2CFC81" stroke-width="5" />
    <path d="M668.962 859.039L326.099 490.779C371.955 412.471 499.647 235.113 668.962 143.683"
      stroke="#2CFC81" stroke-width="5" />
    <path
      d="M743.038 856.923L914.469 672.793L1085.9 488.662C1040.04 410.354 912.353 232.997 743.038 141.566"
      stroke="#2CFC81" stroke-width="5" />
  </g>
  <g opacity="0.2" filter="url(#filter3_d_35_164)">
    <path
      d="M674.946 1438.76L215.352 979.168C213.577 988.041 211.093 1026.02 215.352 1106.93C219.61 1187.85 262.08 1274.33 282.782 1307.45C296.978 1328.15 343.825 1383.4 417.644 1438.76C491.463 1494.13 619.937 1512.7 674.946 1515.07V1438.76Z"
      stroke="#2CFC81" stroke-width="5" />
    <path
      d="M1196.65 979.168C1198.42 988.041 1200.91 1026.02 1196.65 1106.93C1192.39 1187.85 1149.92 1274.33 1129.22 1307.45C1115.02 1328.15 1068.17 1383.4 994.356 1438.76C920.537 1494.13 792.063 1512.7 737.054 1515.07V1438.76"
      stroke="#2CFC81" stroke-width="5" />
    <path
      d="M674.946 1358.91V936.581L344.89 606.524C265.392 718.672 231.322 854.362 224.224 908.189"
      stroke="#2CFC81" stroke-width="5" />
    <path
      d="M1067.11 606.753C1146.61 718.901 1180.68 854.591 1187.78 908.417L962.415 1133.78L737.054 1359.14V936.809"
      stroke="#2CFC81" stroke-width="5" />
    <path d="M674.946 863.826L387.478 555.064C425.925 489.408 532.986 340.705 674.946 264.046"
      stroke="#2CFC81" stroke-width="5" />
    <path
      d="M737.054 862.052L880.788 707.67L1024.52 553.289C986.075 487.633 879.014 338.93 737.054 262.272"
      stroke="#2CFC81" stroke-width="5" />
  </g>
  <g opacity="0.3" filter="url(#filter4_d_35_164)">
    <path
      d="M679.482 1358.43L287.008 965.952C285.493 973.528 283.371 1005.96 287.008 1075.06C290.645 1144.16 326.912 1218 344.591 1246.29C356.714 1263.97 396.719 1311.15 459.757 1358.43C522.795 1405.7 632.506 1421.56 679.482 1423.58V1358.43Z"
      stroke="#2CFC81" stroke-width="5" />
    <path
      d="M1124.99 965.952C1126.51 973.528 1128.63 1005.96 1124.99 1075.06C1121.36 1144.16 1085.09 1218 1067.41 1246.29C1055.29 1263.97 1015.28 1311.15 952.243 1358.43C889.205 1405.7 779.494 1421.56 732.518 1423.58V1358.43"
      stroke="#2CFC81" stroke-width="5" />
    <path d="M679.482 1290.23V929.584L397.628 647.73C329.741 743.5 300.646 859.373 294.585 905.338"
      stroke="#2CFC81" stroke-width="5" />
    <path
      d="M1014.37 647.926C1082.26 743.695 1111.35 859.568 1117.42 905.534L924.967 1097.98L732.519 1290.43V929.779"
      stroke="#2CFC81" stroke-width="5" />
    <path d="M679.481 867.455L433.996 603.786C466.828 547.718 558.254 420.732 679.481 355.27"
      stroke="#2CFC81" stroke-width="5" />
    <path
      d="M732.519 865.939L855.261 734.105L978.004 602.27C945.172 546.202 853.746 419.217 732.519 353.754"
      stroke="#2CFC81" stroke-width="5" />
  </g>
  <g opacity="0.4" filter="url(#filter5_d_35_164)">
    <path
      d="M683.261 1291.48L346.722 954.938C345.423 961.434 343.603 989.241 346.722 1048.49C349.84 1107.74 380.939 1171.07 396.098 1195.32C406.493 1210.48 440.797 1250.94 494.851 1291.48C548.905 1332.02 642.98 1345.62 683.261 1347.35V1291.48Z"
      stroke="#2CFC81" stroke-width="5" />
    <path
      d="M1065.28 954.938C1066.58 961.434 1068.4 989.241 1065.28 1048.49C1062.16 1107.74 1031.06 1171.07 1015.9 1195.32C1005.51 1210.48 971.203 1250.94 917.149 1291.48C863.095 1332.02 769.02 1345.62 728.739 1347.35V1291.48"
      stroke="#2CFC81" stroke-width="5" />
    <path d="M683.261 1233V923.752L441.577 682.068C383.365 764.189 358.417 863.548 353.219 902.962"
      stroke="#2CFC81" stroke-width="5" />
    <path
      d="M970.424 682.236C1028.64 764.356 1053.58 863.715 1058.78 903.13L893.76 1068.15L728.739 1233.17V923.92"
      stroke="#2CFC81" stroke-width="5" />
    <path d="M683.261 870.478L472.762 644.386C500.915 596.309 579.311 487.421 683.261 431.288"
      stroke="#2CFC81" stroke-width="5" />
    <path
      d="M728.739 869.179L833.989 756.133L939.239 643.087C911.085 595.01 832.69 486.122 728.739 429.989"
      stroke="#2CFC81" stroke-width="5" />
  </g>
  <g opacity="0.6" filter="url(#filter6_d_35_164)">
    <path
      d="M686.347 1236.8L395.488 945.943C394.365 951.558 392.793 975.59 395.488 1026.8C398.183 1078.01 425.061 1132.74 438.162 1153.7C447.147 1166.8 476.794 1201.76 523.511 1236.8C570.228 1271.84 651.534 1283.59 686.347 1285.09V1236.8Z"
      stroke="#2CFC81" stroke-width="5" />
    <path
      d="M1016.51 945.943C1017.63 951.558 1019.21 975.59 1016.51 1026.8C1013.82 1078.01 986.939 1132.74 973.838 1153.7C964.853 1166.8 935.206 1201.76 888.489 1236.8C841.772 1271.84 760.466 1283.59 725.653 1285.09V1236.8"
      stroke="#2CFC81" stroke-width="5" />
    <path
      d="M686.348 1186.27V918.991L477.468 710.111C427.157 781.085 405.596 866.958 401.104 901.023"
      stroke="#2CFC81" stroke-width="5" />
    <path
      d="M934.532 710.256C984.843 781.23 1006.4 867.102 1010.9 901.167L868.275 1043.79L725.653 1186.41V919.135"
      stroke="#2CFC81" stroke-width="5" />
    <path d="M686.347 872.947L504.42 677.544C528.752 635.992 596.507 541.884 686.347 493.37"
      stroke="#2CFC81" stroke-width="5" />
    <path
      d="M725.653 871.824L816.616 774.122L907.58 676.421C883.248 634.869 815.493 540.761 725.653 492.247"
      stroke="#2CFC81" stroke-width="5" />
  </g>
  <g opacity="0.8" filter="url(#filter7_d_35_164)">
    <path
      d="M688.741 1194.4L433.307 938.967C432.321 943.898 430.94 965.004 433.307 1009.98C435.674 1054.95 459.278 1103.01 470.784 1121.42C478.674 1132.93 504.71 1163.63 545.737 1194.4C586.765 1225.17 658.168 1235.49 688.741 1236.81V1194.4Z"
      stroke="#2CFC81" stroke-width="5" />
    <path
      d="M978.693 938.967C979.679 943.898 981.06 965.004 978.693 1009.98C976.326 1054.95 952.722 1103.01 941.216 1121.42C933.326 1132.93 907.29 1163.63 866.263 1194.4C825.235 1225.17 753.832 1235.49 723.259 1236.81V1194.4"
      stroke="#2CFC81" stroke-width="5" />
    <path
      d="M688.741 1150.02V915.298L505.302 731.859C461.119 794.188 442.183 869.602 438.238 899.518"
      stroke="#2CFC81" stroke-width="5" />
    <path
      d="M906.698 731.986C950.881 794.315 969.817 869.729 973.762 899.645L848.511 1024.9L723.259 1150.15V915.425"
      stroke="#2CFC81" stroke-width="5" />
    <path d="M688.741 874.862L528.971 703.258C550.34 666.767 609.842 584.121 688.741 541.516"
      stroke="#2CFC81" stroke-width="5" />
    <path
      d="M723.259 873.876L803.144 788.074L883.029 702.272C861.66 665.781 802.158 583.135 723.259 540.53"
      stroke="#2CFC81" stroke-width="5" />
  </g>
  <defs>
    <filter id="filter0_d_35_164" x="439.5" y="557.8" width="533" height="662.148"
      filterUnits="userSpaceOnUse" color-interpolation-filters="sRGB">
      <feFlood flood-opacity="0" result="BackgroundImageFix" />
      <feColorMatrix in="SourceAlpha" type="matrix"
        values="0 0 0 0 0 0 0 0 0 0 0 0 0 0 0 0 0 0 127 0" result="hardAlpha" />
      <feOffset />
      <feGaussianBlur stdDeviation="12.5" />
      <feComposite in2="hardAlpha" operator="out" />
      <feColorMatrix type="matrix"
        values="0 0 0 0 0.172549 0 0 0 0 0.988235 0 0 0 0 0.505882 0 0 0 1 0" />
      <feBlend mode="normal" in2="BackgroundImageFix" result="effect1_dropShadow_35_164" />
      <feBlend mode="normal" in="SourceGraphic" in2="effect1_dropShadow_35_164" result="shape" />
    </filter>
    <filter id="filter1_d_35_164" x="0.5" y="0.0141602" width="1411" height="1777.72"
      filterUnits="userSpaceOnUse" color-interpolation-filters="sRGB">
      <feFlood flood-opacity="0" result="BackgroundImageFix" />
      <feColorMatrix in="SourceAlpha" type="matrix"
        values="0 0 0 0 0 0 0 0 0 0 0 0 0 0 0 0 0 0 127 0" result="hardAlpha" />
      <feOffset />
      <feGaussianBlur stdDeviation="12.5" />
      <feComposite in2="hardAlpha" operator="out" />
      <feColorMatrix type="matrix"
        values="0 0 0 0 0.172549 0 0 0 0 0.988235 0 0 0 0 0.505882 0 0 0 1 0" />
      <feBlend mode="normal" in2="BackgroundImageFix" result="effect1_dropShadow_35_164" />
      <feBlend mode="normal" in="SourceGraphic" in2="effect1_dropShadow_35_164" result="shape" />
    </filter>
    <filter id="filter2_d_35_164" x="90.5" y="114.367" width="1231" height="1549.02"
      filterUnits="userSpaceOnUse" color-interpolation-filters="sRGB">
      <feFlood flood-opacity="0" result="BackgroundImageFix" />
      <feColorMatrix in="SourceAlpha" type="matrix"
        values="0 0 0 0 0 0 0 0 0 0 0 0 0 0 0 0 0 0 127 0" result="hardAlpha" />
      <feOffset />
      <feGaussianBlur stdDeviation="12.5" />
      <feComposite in2="hardAlpha" operator="out" />
      <feColorMatrix type="matrix"
        values="0 0 0 0 0.172549 0 0 0 0 0.988235 0 0 0 0 0.505882 0 0 0 1 0" />
      <feBlend mode="normal" in2="BackgroundImageFix" result="effect1_dropShadow_35_164" />
      <feBlend mode="normal" in="SourceGraphic" in2="effect1_dropShadow_35_164" result="shape" />
    </filter>
    <filter id="filter3_d_35_164" x="185.5" y="235.072" width="1041" height="1307.6"
      filterUnits="userSpaceOnUse" color-interpolation-filters="sRGB">
      <feFlood flood-opacity="0" result="BackgroundImageFix" />
      <feColorMatrix in="SourceAlpha" type="matrix"
        values="0 0 0 0 0 0 0 0 0 0 0 0 0 0 0 0 0 0 127 0" result="hardAlpha" />
      <feOffset />
      <feGaussianBlur stdDeviation="12.5" />
      <feComposite in2="hardAlpha" operator="out" />
      <feColorMatrix type="matrix"
        values="0 0 0 0 0.172549 0 0 0 0 0.988235 0 0 0 0 0.505882 0 0 0 1 0" />
      <feBlend mode="normal" in2="BackgroundImageFix" result="effect1_dropShadow_35_164" />
      <feBlend mode="normal" in="SourceGraphic" in2="effect1_dropShadow_35_164" result="shape" />
    </filter>
    <filter id="filter4_d_35_164" x="257.5" y="326.554" width="897" height="1124.64"
      filterUnits="userSpaceOnUse" color-interpolation-filters="sRGB">
      <feFlood flood-opacity="0" result="BackgroundImageFix" />
      <feColorMatrix in="SourceAlpha" type="matrix"
        values="0 0 0 0 0 0 0 0 0 0 0 0 0 0 0 0 0 0 127 0" result="hardAlpha" />
      <feOffset />
      <feGaussianBlur stdDeviation="12.5" />
      <feComposite in2="hardAlpha" operator="out" />
      <feColorMatrix type="matrix"
        values="0 0 0 0 0.172549 0 0 0 0 0.988235 0 0 0 0 0.505882 0 0 0 1 0" />
      <feBlend mode="normal" in2="BackgroundImageFix" result="effect1_dropShadow_35_164" />
      <feBlend mode="normal" in="SourceGraphic" in2="effect1_dropShadow_35_164" result="shape" />
    </filter>
    <filter id="filter5_d_35_164" x="317.5" y="402.789" width="777" height="972.17"
      filterUnits="userSpaceOnUse" color-interpolation-filters="sRGB">
      <feFlood flood-opacity="0" result="BackgroundImageFix" />
      <feColorMatrix in="SourceAlpha" type="matrix"
        values="0 0 0 0 0 0 0 0 0 0 0 0 0 0 0 0 0 0 127 0" result="hardAlpha" />
      <feOffset />
      <feGaussianBlur stdDeviation="12.5" />
      <feComposite in2="hardAlpha" operator="out" />
      <feColorMatrix type="matrix"
        values="0 0 0 0 0.172549 0 0 0 0 0.988235 0 0 0 0 0.505882 0 0 0 1 0" />
      <feBlend mode="normal" in2="BackgroundImageFix" result="effect1_dropShadow_35_164" />
      <feBlend mode="normal" in="SourceGraphic" in2="effect1_dropShadow_35_164" result="shape" />
    </filter>
    <filter id="filter6_d_35_164" x="366.5" y="465.048" width="679" height="847.653"
      filterUnits="userSpaceOnUse" color-interpolation-filters="sRGB">
      <feFlood flood-opacity="0" result="BackgroundImageFix" />
      <feColorMatrix in="SourceAlpha" type="matrix"
        values="0 0 0 0 0 0 0 0 0 0 0 0 0 0 0 0 0 0 127 0" result="hardAlpha" />
      <feOffset />
      <feGaussianBlur stdDeviation="12.5" />
      <feComposite in2="hardAlpha" operator="out" />
      <feColorMatrix type="matrix"
        values="0 0 0 0 0.172549 0 0 0 0 0.988235 0 0 0 0 0.505882 0 0 0 1 0" />
      <feBlend mode="normal" in2="BackgroundImageFix" result="effect1_dropShadow_35_164" />
      <feBlend mode="normal" in="SourceGraphic" in2="effect1_dropShadow_35_164" result="shape" />
    </filter>
    <filter id="filter7_d_35_164" x="404.5" y="513.33" width="603" height="751.089"
      filterUnits="userSpaceOnUse" color-interpolation-filters="sRGB">
      <feFlood flood-opacity="0" result="BackgroundImageFix" />
      <feColorMatrix in="SourceAlpha" type="matrix"
        values="0 0 0 0 0 0 0 0 0 0 0 0 0 0 0 0 0 0 127 0" result="hardAlpha" />
      <feOffset />
      <feGaussianBlur stdDeviation="12.5" />
      <feComposite in2="hardAlpha" operator="out" />
      <feColorMatrix type="matrix"
        values="0 0 0 0 0.172549 0 0 0 0 0.988235 0 0 0 0 0.505882 0 0 0 1 0" />
      <feBlend mode="normal" in2="BackgroundImageFix" result="effect1_dropShadow_35_164" />
      <feBlend mode="normal" in="SourceGraphic" in2="effect1_dropShadow_35_164" result="shape" />
    </filter>
  </defs>
</svg>